<svg width="24" height="24" viewBox="0 0 24 24" fill="none" xmlns="http://www.w3.org/2000/svg">
<path d="M20.8897 6.66025e-06C21.1513 0.023936 21.3919 0.206651 21.4852 0.452211L23.9558 7.16911C23.9846 7.24657 23.9996 7.32912 23.9999 7.41175V11.2941C24.0052 11.667 23.667 12.01 23.2941 12.01C22.9211 12.01 22.5829 11.667 22.5882 11.2941V8.11763H1.41176V22.5882H22.5882V15.5294H13.7647V17.2941C13.7628 17.7946 13.1079 18.1555 12.6838 17.8897L8.80145 15.4191C8.40277 15.1654 8.40277 14.4816 8.80145 14.2279L12.6838 11.7573C12.8223 11.6664 12.9936 11.6266 13.1581 11.647C13.4934 11.6947 13.768 12.0142 13.7647 12.3529V14.1176H23.2941C23.6636 14.1177 23.9999 14.4539 23.9999 14.8235V23.2941C23.9999 23.6637 23.6636 23.9999 23.2941 23.9999H0.705879C0.336291 23.9999 3.59858e-05 23.6637 -1.07288e-06 23.2941V7.41175C-0.000116484 7.35231 0.00731646 7.29286 0.0220588 7.23528L1.78676 0.518388C1.86844 0.222002 2.16315 -0.00140581 2.47058 6.66025e-06C8.6088 6.66025e-06 14.7561 6.66025e-06 20.8897 6.66025e-06ZM20.3272 1.41177H13.0588V6.70587H22.2794L20.3272 1.41177ZM11.647 1.41177H3.01102L1.62132 6.70587H11.647V1.41177ZM12.3529 13.6323L10.4889 14.8235L12.3529 16.0147V13.6323Z" fill="#9F9F9F"/>
</svg>
